<svg width="419" height="419" viewBox="0 0 419 419" fill="none" xmlns="http://www.w3.org/2000/svg">
<path d="M274.969 144.031C292.332 144.031 308.984 137.134 321.262 124.856C333.54 112.578 340.438 95.9259 340.438 78.5625C340.438 61.1991 333.54 44.5469 321.262 32.2691C308.984 19.9913 292.332 13.0938 274.969 13.0938H144.031C126.668 13.0938 110.016 19.9913 97.7379 32.2691C85.4601 44.5469 78.5625 61.1991 78.5625 78.5625C78.5625 95.9259 85.4601 112.578 97.7379 124.856C110.016 137.134 126.668 144.031 144.031 144.031C126.668 144.031 110.016 150.929 97.7379 163.207C85.4601 175.484 78.5625 192.137 78.5625 209.5C78.5625 226.863 85.4601 243.516 97.7379 255.793C110.016 268.071 126.668 274.969 144.031 274.969C131.083 274.969 118.425 278.808 107.659 286.002C96.8925 293.196 88.5012 303.421 83.546 315.384C78.5908 327.347 77.2943 340.51 79.8205 353.21C82.3466 365.91 88.5819 377.575 97.7379 386.731C106.894 395.887 118.559 402.122 131.259 404.648C143.959 407.174 157.122 405.878 169.085 400.923C181.048 395.968 191.273 387.576 198.467 376.81C205.66 366.044 209.5 353.386 209.5 340.438V144.031H274.969Z" fill="#464A4E"/>
<path d="M274.969 274.969C311.126 274.969 340.438 245.657 340.438 209.5C340.438 173.343 311.126 144.031 274.969 144.031C238.811 144.031 209.5 173.343 209.5 209.5C209.5 245.657 238.811 274.969 274.969 274.969Z" fill="#464A4E"/>
</svg>
