<svg width="458" height="458" viewBox="0 0 458 458" fill="none" xmlns="http://www.w3.org/2000/svg">
<path d="M229 28.625C221.788 28.625 214.743 31.2527 209.32 36.6758L169.066 77.377C166.886 78.551 165.041 80.2283 163.699 82.2969L36.6758 209.32C25.8296 220.111 25.8296 237.833 36.6758 248.68L209.32 421.324C220.167 432.115 237.833 432.115 248.68 421.324L421.324 248.68C432.17 237.889 432.17 220.167 421.324 209.32L248.68 36.6758C243.257 31.2527 236.212 28.625 229 28.625ZM229 57.6973L400.303 229L229 400.303L57.6973 229L176.223 110.475L201.27 135.521C200.599 137.926 200.375 140.497 200.375 143.125C200.375 153.692 206.134 162.749 214.688 167.725V290.275C206.134 295.251 200.375 304.308 200.375 314.875C200.375 330.697 213.178 343.5 229 343.5C244.822 343.5 257.625 330.697 257.625 314.875C257.625 304.308 251.866 295.251 243.312 290.275V178.012L287.145 221.844C286.53 224.136 286.25 226.54 286.25 229C286.25 244.822 299.053 257.625 314.875 257.625C330.697 257.625 343.5 244.822 343.5 229C343.5 213.178 330.697 200.375 314.875 200.375C312.415 200.375 310.011 200.655 307.719 201.27L256.73 150.281C257.345 147.989 257.625 145.585 257.625 143.125C257.625 127.303 244.822 114.5 229 114.5C226.372 114.5 223.801 114.724 221.396 115.395L196.35 90.3477L229 57.6973Z" fill="#464A4E"/>
</svg>
