<svg width="512" height="512" viewBox="0 0 512 512" fill="none" xmlns="http://www.w3.org/2000/svg">
<path d="M128 64C92.6539 64 64 92.6539 64 128V384C64 419.347 92.6539 448 128 448H384C419.347 448 448 419.347 448 384V128C448 92.6539 419.347 64 384 64H128ZM284.467 342.507C299.799 354.865 315.13 360.966 330.462 360.811C339.849 360.811 347.044 359.089 352.051 355.648C356.9 352.363 359.326 347.669 359.326 341.568C359.326 335.311 356.9 329.99 352.051 325.611C347.044 321.231 337.581 316.849 323.657 312.469C306.916 307.62 294.01 301.361 284.937 293.696C276.019 286.031 271.482 275.313 271.326 261.547C271.326 248.561 276.958 237.69 288.222 228.928C299.172 220.166 313.175 215.787 330.227 215.787C354.007 215.787 373.092 221.574 387.486 233.152L371.059 258.731C365.271 254.193 358.622 250.908 351.113 248.875C343.603 246.528 336.877 245.355 330.931 245.355C322.797 245.355 316.303 246.842 311.454 249.813C306.605 252.785 304.179 256.698 304.179 261.547C304.179 266.865 307.151 271.403 313.097 275.157C319.042 278.756 329.21 282.746 343.603 287.125C360.969 292.288 373.327 299.172 380.681 307.776C388.034 316.38 391.71 327.332 391.71 340.629C391.71 354.24 386.468 365.973 375.987 375.829C365.662 385.53 350.643 390.613 330.931 391.083C305.118 391.083 283.529 383.339 266.163 367.851L284.467 342.507ZM166.486 356.117C171.493 359.247 177.516 360.811 184.556 360.811C191.909 360.811 198.01 358.699 202.86 354.475C207.71 350.095 210.134 342.507 210.134 331.712V218.603H241.815V337.813C241.346 356.273 236.026 369.572 225.858 377.707C220.068 382.556 213.732 385.999 206.849 388.032C199.966 390.065 193.317 391.083 186.902 391.083C175.169 391.083 164.766 389.05 155.692 384.981C145.992 380.602 137.857 372.858 131.286 361.749L153.345 343.68C157.413 349.156 161.793 353.301 166.486 356.117Z" fill="#464A4E"/>
</svg>
