<svg width="779" height="169" viewBox="0 0 779 169" fill="none" xmlns="http://www.w3.org/2000/svg">
<g clip-path="url(#clip0_13_1036)">
<path d="M159.895 166.472H0V6.52979H159.895L79.9475 86.4847L159.895 166.472Z" fill="currentColor"/>
<path d="M353.381 6.01758H321.293L252.127 80.2431V6.5297H226.566V166.472H252.127V89.2373L321.805 166.472H354.373L280.696 83.732L353.381 6.01758Z" fill="currentColor"/>
<path d="M440.079 54.6692C431.057 49.644 420.532 46.6353 409.495 46.6353C397.978 46.6353 387.452 49.1318 378.431 54.6692C369.409 60.2065 361.891 67.2161 356.868 76.2423C351.846 85.7805 349.35 96.311 349.35 107.834C349.35 119.356 351.846 130.399 356.868 139.425C361.891 148.451 368.897 155.973 378.431 160.998C387.452 166.024 397.978 169.032 409.495 169.032C421.012 169.032 431.537 166.536 440.559 160.998C449.58 155.973 456.587 148.451 461.609 139.425C466.632 129.887 469.127 119.356 469.127 107.834C469.127 96.311 466.12 85.7805 461.098 76.2423C456.139 67.1841 449.101 59.6623 440.079 54.6692ZM438.095 128.351C435.088 134.368 431.089 138.881 426.067 141.89C421.044 145.411 415.029 146.915 408.535 146.915C402.041 146.915 395.994 145.411 390.492 141.89C385.469 138.369 381.47 133.856 378.463 128.351C375.456 122.333 374.464 115.804 374.464 108.282C374.464 100.76 375.967 93.7504 378.975 88.2131C381.982 82.1957 385.981 77.6826 391.004 74.6739C396.026 71.1531 402.041 69.6487 409.047 69.6487C415.573 69.6487 421.588 71.1531 426.578 74.6739C431.601 78.1947 435.6 82.7078 438.607 88.2131C441.615 94.2305 442.606 100.76 442.606 108.282C442.606 115.804 441.103 122.333 438.095 128.351Z" fill="currentColor"/>
<path d="M520.794 20.0688H496.225V40.1376C496.225 43.1463 495.713 45.6429 493.729 47.1473C492.226 48.6516 489.73 49.6439 486.723 49.6439H474.694V70.7048H495.745V133.888C495.745 140.417 497.248 146.435 499.744 151.428C502.239 156.453 506.27 160.454 511.261 162.951C516.283 165.959 521.786 166.952 528.792 166.952H547.827V144.898H533.783C530.264 144.898 527.257 143.906 524.761 140.897C522.746 138.401 521.242 134.88 521.242 130.879V70.7048H548.307V49.6439H521.242V20.0688H520.794Z" fill="currentColor"/>
<path d="M592.456 0H567.406V166.471H592.456V0Z" fill="currentColor"/>
<path d="M646.586 0.512207H621.025V26.5984H646.586V0.512207Z" fill="currentColor"/>
<path d="M646.074 49.6436H621.025V166.951H646.074V49.6436Z" fill="currentColor"/>
<path d="M773.913 68.6885C770.394 61.6788 765.403 56.1415 758.877 52.6527C752.351 48.6517 744.833 46.6353 736.323 46.6353C727.301 46.6353 719.271 49.1318 712.265 53.1648C706.762 56.6856 702.252 61.6788 698.733 67.2161V49.1639H674.675V166.472H699.724V100.76C699.724 94.2305 700.716 88.7252 703.243 83.7C705.739 78.6748 709.258 75.186 713.257 72.1773C717.768 69.6807 722.79 68.1764 728.805 68.1764C734.307 68.1764 738.338 69.1686 742.337 71.6972C746.336 74.2258 748.864 77.2025 750.847 81.2354C752.863 85.2364 753.854 90.2616 753.854 95.7669V165.959H778.904V92.7582C779.448 83.732 777.464 75.7301 773.913 68.6885Z" fill="currentColor"/>
</g>
<defs>
<clipPath id="clip0_13_1036">
<rect width="779" height="169" fill="white"/>
</clipPath>
</defs>
</svg>
