<svg width="512" height="512" viewBox="0 0 512 512" fill="none" xmlns="http://www.w3.org/2000/svg">
<path d="M148.064 106.665C148.056 124.037 137.516 139.67 121.415 146.192C105.314 152.714 86.8665 148.822 74.7712 136.353C62.6758 123.884 59.3482 105.326 66.3573 89.4308C73.3666 73.5358 89.3128 63.4773 106.677 63.9985C129.74 64.6908 148.074 83.5919 148.064 106.665ZM149.344 180.905H64.0102V447.998H149.344V180.905ZM284.171 180.905H199.264V447.998H283.317V307.838C283.317 229.758 385.077 222.505 385.077 307.838V447.998H469.344V278.825C469.344 147.198 318.731 152.105 283.317 216.745L284.171 180.905Z" fill="#464A4E"/>
</svg>
