<svg width="512" height="512" viewBox="0 0 512 512" fill="none" xmlns="http://www.w3.org/2000/svg">
<path d="M476.637 64.881C469.881 68.0117 463.126 69.4945 449.78 70.6479C411.883 74.108 396.889 85.3122 370.362 130.459C338.067 185.162 325.874 194.224 252.552 217.95C189.941 238.382 181.867 241.677 167.532 252.881C155.998 262.108 150.067 268.369 139.521 282.375C126.834 299.181 124.033 301.158 112.664 301.158C107.556 300.994 97.5056 300.005 90.2559 298.687C69.3303 294.897 56.8079 295.392 49.3933 300.335C46.0979 302.642 43.2968 305.113 43.4616 305.772C43.4616 306.76 62.0805 320.931 68.012 324.226C69.9892 325.544 69.8245 326.533 66.6938 330.817C57.7964 342.68 54.8306 347.953 54.8306 351.577C54.8306 355.202 55.4895 355.532 62.7395 355.532C67.0235 355.532 74.7675 354.543 79.7106 353.225C91.5738 350.094 123.045 334.936 139.686 324.226C177.088 300.17 189.446 297.863 244.314 304.454C259.308 306.266 276.773 307.749 283.364 307.749C294.898 307.749 295.227 307.584 299.841 301.982C302.477 298.852 305.608 293.579 306.596 290.119C310.221 279.574 314.011 271.5 315.329 271.5C318.46 271.5 311.045 304.783 305.113 316.482C300.006 326.368 288.307 343.998 283.199 349.271L278.751 353.884H285.012C293.58 353.884 312.199 346.964 322.414 340.208C339.88 328.345 354.05 310.55 363.936 287.482C366.407 281.386 369.208 276.443 370.032 276.443C370.691 276.443 370.691 281.386 370.197 287.318L369.044 298.357L374.481 295.227C384.861 289.295 398.043 274.136 406.116 258.978C417.815 236.569 421.934 223.553 437.093 157.81C442.86 133.095 445.661 129.305 473.342 108.709C487.017 98.4938 493.114 88.9372 494.267 75.591C495.75 59.7731 492.125 57.6313 476.637 64.881ZM25.8314 416.496L17.4283 449.45H23.6896C30.7746 449.45 29.9508 451.262 36.871 421.439C38.8483 412.871 40.9902 405.292 41.4845 404.633C42.1436 403.809 47.0866 413.53 52.6887 426.053L62.7396 448.626H75.4268L85.313 426.053C90.7503 413.53 95.5284 403.479 96.0229 403.315C96.5171 403.315 99.483 413.695 102.284 426.217L107.721 449.12L114.147 449.779C117.772 450.108 120.738 450.108 120.738 449.614C120.738 449.285 116.948 434.126 112.17 416.166L103.767 383.377L97.8354 383.872C92.0685 384.366 92.0685 384.366 81.0289 408.752C74.9326 422.098 69.66 433.467 69.3304 433.796C69.0009 434.291 63.5634 423.086 57.3024 409.081L45.9332 383.543H34.2347L25.8314 416.496ZM344.822 416.496V449.45H365.254C391.122 449.45 394.418 448.791 402.985 441.046C421.934 424.405 415.178 391.946 391.287 385.19C387.992 384.366 376.128 383.543 365.089 383.543H344.822V416.496ZM390.957 392.11C400.679 397.053 404.633 404.303 404.633 416.496C404.633 428.195 400.679 435.609 391.617 440.882C386.015 444.012 383.213 444.507 369.538 444.177L353.884 443.683L353.39 418.144C353.226 404.138 353.39 391.781 353.72 390.627C354.379 389.145 358.828 388.485 369.208 388.485C380.907 388.485 385.026 389.145 390.957 392.11ZM427.206 416.331V449.45H451.262C477.625 449.45 484.546 447.802 488.006 440.223C491.96 431.325 488.171 418.968 480.756 417.155C476.472 416.167 474.989 413.201 478.779 413.201C483.063 413.201 487.347 406.61 487.347 399.855C487.347 395.076 486.193 392.275 482.733 388.98C478.285 384.366 477.955 384.366 452.746 383.872L427.206 383.378V416.331ZM473.506 390.298C478.284 392.769 480.427 399.69 478.284 405.127C475.648 411.223 473.671 411.883 453.24 412.871L435.445 413.695V388.485H452.91C462.467 388.485 471.694 389.309 473.506 390.298ZM474.989 420.615C483.557 425.064 482.898 439.563 474.165 442.859C471.694 443.847 462.137 444.507 452.581 444.507H435.445V418.144H452.746C464.938 418.144 471.694 418.803 474.989 420.615ZM138.039 403.315C129.141 407.599 125.681 413.86 125.681 425.229C125.681 435.939 130.294 443.847 138.862 448.131C146.606 452.086 158.14 451.921 164.896 447.802C169.18 445.166 170.168 445.001 170.168 446.978C170.168 448.79 171.981 449.449 176.759 449.449H183.35V401.667H176.759C171.981 401.667 170.168 402.326 170.168 404.138C170.168 407.269 170.498 407.269 162.754 403.314C154.515 399.195 146.442 399.195 138.039 403.315ZM166.708 414.024C169.674 416.99 170.663 419.791 170.827 425.229C171.157 438.245 160.282 445.66 148.254 440.552C141.499 437.751 138.533 433.138 138.533 425.229C138.533 410.4 155.834 403.479 166.708 414.024ZM220.093 403.315C217.127 405.127 214.656 407.269 214.656 408.258C214.656 409.082 213.997 409.905 213.008 409.905C212.184 409.905 211.36 408.093 211.36 405.786C211.36 402.161 210.701 401.667 205.593 401.667H199.826V449.45H211.36V437.257C211.36 417.155 215.974 409.905 229.155 409.905C234.757 409.905 235.746 409.411 236.405 405.786C236.899 403.644 236.899 401.337 236.405 400.843C234.428 398.866 225.036 400.349 220.093 403.315ZM281.057 402.491C272.654 406.28 268.205 414.024 268.205 425.064C268.205 435.28 271.006 440.552 279.574 446.814C285.671 451.427 303.301 451.757 308.079 447.308C312.034 443.848 313.516 443.683 313.516 446.978C313.516 448.791 315.329 449.45 320.107 449.45H326.698V401.667H320.107C314.505 401.667 313.516 402.161 313.516 404.962C313.516 408.258 313.516 408.258 308.573 404.798C302.477 400.184 288.636 399.031 281.057 402.491ZM302.971 409.905C304.29 409.905 307.255 411.718 309.397 414.024C312.528 416.99 313.516 419.791 313.516 425.064C313.516 433.962 310.386 438.74 302.807 441.211C291.273 445.001 279.08 434.456 281.222 422.428C282.705 414.189 291.767 407.434 298.358 409.246C299.676 409.576 301.653 409.905 302.971 409.905ZM244.314 422.757C244.314 447.637 245.632 451.097 255.683 451.097C259.143 451.097 262.274 450.768 262.768 450.274C264.416 448.626 261.944 441.211 259.802 441.211C257.99 441.211 257.495 437.257 257.495 421.439V401.667H244.314V422.757Z" fill="#464A4E"/>
</svg>
