<svg width="512" height="512" viewBox="0 0 512 512" fill="none" xmlns="http://www.w3.org/2000/svg">
<path d="M133.4 388.2H115.2C114.6 357.4 112.8 328.4 110 301.2H109.8L82 388.2H68.2L40.6 301.2H40.4C38.4 327.2 37 356.2 36.6 388.2H20C21 349.4 23.8 313 28 279.2H50.6L76.8 359.4H77L103.4 279.2H125C129.8 318.8 132.6 355.2 133.4 388.2Z" fill="#464A4E"/>
<path d="M212.4 307.6C205 348 195.2 377.2 183 395.6C173.6 409.8 163.2 416.8 151.8 416.8C148.8 416.8 145.2 415.8 140.6 414.2V404.4C142.8 404.8 145.2 404.8 148.2 404.8C153.4 404.8 157.6 403.4 161 400.4C164.8 396.8 166.8 392.8 166.8 388.4C166.8 385.4 165.4 379.2 162.2 369.8L142.2 307.6H160L174.4 354.2C177.6 364.8 179 372.2 178.4 376.4C186.2 355.4 191.8 332.4 194.8 307.8H212.4" fill="#464A4E"/>
<path d="M292.2 357.8C292.2 367 288.8 374.6 282 380.6C275.2 386.6 266.2 389.4 254.8 389.4C244.2 389.4 233.8 386 223.8 379.2L228.4 369.8C237 374 244.8 376.2 251.8 376.2C258.4 376.2 263.6 374.8 267.2 371.8C270.8 368.8 273.2 364.8 273.2 359.6C273.2 353 268.6 347.6 260.4 343C252.8 338.8 237.6 330 237.6 330C229.4 324 225.2 317.4 225.2 306.8C225.2 298 228.2 290.8 234.4 285.4C240.6 280 248.6 277.2 258.4 277.2C268.6 277.2 277.6 279.8 286 285.2L281.8 294.6C274.8 291.6 267.8 290 260.8 290C255.2 290 251 291.4 247.8 294C244.6 296.6 243 300.2 243 304.4C243 310.8 247.6 316.4 256.2 321.2C264 325.4 279.6 334.4 279.6 334.4C288 340.8 292.2 347.2 292.2 357.8Z" fill="#464A4E"/>
<path d="M324.8 366.2C320.4 359 318.2 347.6 318.2 332C318.2 304.6 326.6 290.8 343.2 290.8C352 290.8 358.2 294 362.4 300.6C366.8 307.8 369 319 369 334.6C369 362.2 360.6 376.2 344 376.2C335.4 376.2 329 372.8 324.8 366.2ZM389.6 390.8L369.6 381C371.4 379.6 373 378 374.6 376.2C383 366.2 387.4 351.4 387.4 331.8C387.4 295.8 373.2 277.6 345 277.6C331.2 277.6 320.4 282.2 312.6 291.4C304.2 301.4 299.8 316.2 299.8 335.6C299.8 354.8 303.6 368.8 311 377.8C317.8 385.8 328.2 390 342.2 390C347.4 390 352.2 389.4 356.4 388L382.4 403.2L389.6 390.8Z" fill="#464A4E"/>
<path d="M455 388.2H403.2V279H420.6V374.8H455V388.2Z" fill="#464A4E"/>
<path d="M467.4 388H470.2V377H474V374.8H463.4V377H467.2L467.4 388ZM489.4 388H492V374.6H488L484.6 383.8L481 374.6H477V388H479.6V377.8H479.8L483.6 388H485.6L489.4 377.8V388Z" fill="#464A4E"/>
<path d="M476.8 242.4C466.2 242.2 458.2 243.2 451.2 246.2C449.2 247 446 247 445.8 249.4C446.8 250.4 447 252.2 448 253.6C449.6 256.2 452.4 259.8 454.8 261.6C457.6 263.8 460.4 265.8 463.2 267.6C468.4 270.8 474.2 272.6 479 275.8C481.8 277.6 484.8 280 487.6 282C489 283 490 284.8 491.8 285.4V285C490.8 283.8 490.6 282.2 489.6 280.8C488.2 279.4 487 278.2 485.6 277C481.8 271.8 477 267.4 472 263.8C467.8 261 458.6 257 456.8 252L456.6 251.8C459.4 251.6 463 250.4 465.6 249.6C470 248.4 474.2 248.6 478.8 247.4C481 246.8 483 246.2 485.2 245.6V244.4C482.8 242 481.2 238.8 478.6 236.6C472 230.8 464.6 225.2 457 220.4C453 217.8 447.6 216 443.4 213.8C441.8 213 439.2 212.6 438.2 211.2C435.8 208.4 434.4 204.6 432.8 201C429 193.8 425.2 185.8 422 178C419.6 172.8 418.2 167.8 415.4 163C401.8 140.6 387.2 127 364.6 113.6C359.8 110.8 354 109.6 347.8 108.2C344.6 108 341.2 107.8 338 107.6C335.8 106.6 333.8 104.2 332 103C324.4 98.2002 305.2 88.0002 299.6 101.6C296 110.2 304.8 118.6 307.8 123C310 126 313 129.4 314.4 132.8C315.4 135 315.6 137.4 316.6 139.8C318.8 145.6 320.6 152 323.4 157.4C324.8 160.2 326.4 163 328.2 165.6C329.2 167 331 167.8 331.4 170C329.6 172.6 329.4 176.6 328.4 179.8C323.6 194.6 325.6 213.2 332.2 224.2C334.4 227.4 339.2 234.8 346 232C352 229.6 350.6 222.2 352.4 215.6C352.8 214 352.6 213 353.4 211.8V212C355.2 215.8 357.2 219.2 358.8 223C362.8 229.4 370 236.2 376 240.6C379.2 243 381.6 247 385.6 248.6V248.2H385.4C384.6 247 383.4 246.4 382.4 245.6C380 243.2 377.4 240.4 375.6 237.8C370 230.4 365.2 222.2 360.8 213.8C358.6 209.8 356.8 205.2 355.2 201.2C354.4 199.6 354.4 197.2 353 196.4C351 199.2 348.2 201.8 346.6 205.4C344 211 343.8 218 342.8 225.2C342.2 225.4 342.6 225.2 342.2 225.4C338 224.4 336.6 220 335 216.2C331 206.8 330.4 191.8 333.8 181C334.8 178.2 338.6 169.6 337 166.8C336.2 164.2 333.6 162.8 332.2 160.8C330.6 158.2 328.6 155.2 327.4 152.4C324.2 145 322.6 136.8 319.2 129.4C317.6 126 314.8 122.4 312.6 119.2C310 115.6 307.4 113.2 305.4 109C304.8 107.6 303.8 105.2 304.8 103.6C305 102.6 305.6 102.2 306.6 101.8C308.2 100.4 313.2 102.2 314.8 103C319.6 105 323.8 106.8 327.8 109.6C329.6 110.8 331.6 113.4 334 114H336.8C341 115 345.8 114.2 349.8 115.4C356.8 117.6 363 121 368.8 124.6C386 135.6 400.2 151 409.8 169.6C411.4 172.6 412 175.4 413.6 178.6C416.4 185 419.8 191.6 422.6 198C425.4 204.2 428 210.6 432 215.6C434 218.4 441.8 219.8 445.4 221.2C448 222.4 452 223.4 454.4 225C458.8 227.8 463.4 231 467.6 234C469.8 236.6 476.4 239.8 476.8 242.4Z" fill="#464A4E"/>
<path d="M342.6 127.8C340.4 127.8 338.8 128 337.2 128.4V128.6H337.4C338.4 130.8 340.2 132.2 341.6 134C342.6 136.2 343.6 138.2 344.6 140.4C344.8 140.2 344.8 140.2 344.8 140.2C346.6 139 347.6 136.8 347.6 133.6C346.8 132.6 346.6 131.8 346 130.8C345.4 129.6 343.8 129 342.6 127.8Z" fill="#464A4E"/>
</svg>
