<svg width="416" height="408" viewBox="0 0 416 408" fill="none" xmlns="http://www.w3.org/2000/svg">
<path d="M296.907 0C280.722 0.14025 264.68 2.397 249.106 6.834L248.027 7.17825C238.264 5.508 228.319 4.59 218.439 4.386C197.99 4.04175 180.44 8.88675 166.296 16.9958C152.347 12.291 123.435 4.04175 92.963 5.712C71.786 6.834 48.62 13.1453 31.408 30.9443C14.352 48.6795 5.291 76.1685 7.176 113.628C7.709 123.917 10.699 140.709 15.704 162.55C20.644 184.34 27.625 209.84 36.361 233.147C45.097 256.39 54.626 277.3 69.537 291.503C76.973 298.605 87.269 304.661 99.385 304.139C107.861 303.794 115.505 300.148 122.148 294.767C125.385 298.949 128.856 300.734 131.963 302.405C135.967 304.534 139.75 305.987 143.754 306.931C150.93 308.716 163.189 311.049 177.541 308.652C182.416 307.849 187.564 306.268 192.712 304.075C192.92 309.647 193.128 315.155 193.323 320.739C194.064 338.334 194.558 354.603 199.888 368.883C200.772 371.216 203.151 383.163 212.485 393.784C221.897 404.405 240.162 410.984 261.092 406.598C275.795 403.538 294.541 397.966 307.008 380.575C319.332 363.439 324.883 338.806 325.975 298.822C326.235 296.629 326.586 294.844 326.911 293.11L329.823 293.378H330.174C345.878 294.041 362.947 291.848 377.234 285.332C389.818 279.62 399.373 273.845 406.341 263.555C408.044 261.018 409.994 257.907 410.488 252.59C411.021 247.35 407.901 239.037 402.753 235.199C392.47 227.498 385.97 230.418 378.989 231.884C372.164 233.351 365.17 234.128 358.202 234.332C378.235 201.272 392.587 166.082 400.79 134.984C405.665 116.586 408.382 99.654 408.577 84.8513C408.85 70.0485 407.576 56.967 398.554 45.6195C370.253 10.2255 330.499 0.3825 299.767 0.06375C298.818 0.06375 297.882 0.06375 296.92 0.06375L296.907 0ZM296.088 10.9013C325.143 10.6335 362.297 18.6023 388.973 52.0583C395.005 59.568 396.773 70.5203 396.565 84.0735C396.357 97.6268 393.796 113.756 389.116 131.491C380.12 165.903 362.973 205.862 338.949 241.804C339.768 242.403 340.704 242.926 341.653 243.27C346.658 245.323 358.098 247.044 380.978 242.467C386.737 241.256 390.949 240.478 395.343 243.729C397.514 245.514 398.658 248.179 398.515 250.971C398.255 253.024 397.514 255.013 396.214 256.683C391.807 263.173 383.097 269.369 371.917 274.482C362.037 278.983 347.802 281.316 335.296 281.456C328.939 281.52 323.115 281.048 318.149 279.518L317.889 279.467C315.978 297.458 311.597 333.056 308.737 349.248C306.449 362.317 302.445 372.759 294.801 380.524C287.144 388.365 276.38 393.006 261.82 396.066C243.815 399.853 230.737 395.798 222.287 388.824C213.837 381.85 209.963 372.555 207.662 366.907C206.05 362.993 205.231 357.944 204.425 351.161C203.606 344.39 203.073 336.154 202.657 326.795C202.124 312.515 201.916 298.235 202.124 283.892C194.623 290.675 185.276 295.112 175.24 296.846C163.267 298.835 152.633 296.846 146.276 295.316C143.156 294.512 140.101 293.39 137.267 291.86C134.29 290.33 131.508 288.609 129.623 285.141C128.531 283.152 128.206 280.844 128.674 278.651C129.207 276.395 130.559 274.469 132.405 273.003C135.85 270.262 140.4 268.757 147.225 267.355C159.692 264.818 164.086 263.109 166.725 261.031C168.961 259.31 171.548 255.727 175.994 250.474C175.994 250.283 175.994 250.015 175.929 249.811C167.882 249.556 160.017 247.503 152.906 243.704C150.345 246.356 136.994 260.177 120.822 279.302C114.049 287.258 106.535 291.848 98.553 292.192C90.636 292.511 83.434 288.609 77.35 282.821C65.169 271.193 55.406 251.201 46.943 228.62C38.48 206.04 31.642 180.884 26.702 159.503C21.827 138.044 18.915 120.781 18.499 112.48C16.679 77.0865 25.142 53.2568 39.624 38.1735C54.106 23.0903 73.957 17.4548 93.327 16.3328C128.063 14.4075 161.096 26.2905 167.739 28.815C180.596 20.247 197.184 14.943 217.906 15.2618C227.734 15.402 237.471 16.6515 247.026 18.9848L247.377 18.7808C251.576 17.391 255.84 16.1287 260.169 15.2108C271.96 12.4695 283.998 11.0798 296.049 10.8885L296.088 10.9013ZM298.727 22.2488H296.166C286.286 22.3635 276.315 23.511 266.643 25.5638C288.236 34.935 304.551 49.3298 316.056 63.8138C324.051 73.7715 330.616 84.7238 335.621 96.4155C337.597 100.942 338.884 104.716 339.56 107.636C339.963 109.102 340.171 110.351 340.301 111.614C340.301 112.277 340.366 112.952 340.028 114.074C340.028 114.138 339.963 114.278 339.963 114.342C340.522 129.221 336.726 139.294 336.232 153.51C335.907 163.812 338.611 175.899 339.287 189.108C339.898 201.514 338.351 215.131 330.148 228.544C330.824 229.347 331.435 230.138 332.111 231.005C353.847 197.396 369.551 160.28 377.884 128.597C382.356 111.524 384.709 96.0585 384.917 83.8568C385.125 71.6295 382.824 62.73 379.834 59.0198C356.538 29.8605 325.065 22.4145 298.714 22.236L298.727 22.2488ZM215.644 26.622C195.208 26.6858 180.505 32.742 169.351 41.8328C157.82 51.2678 150.111 64.0815 145.106 77.2905C139.074 92.8965 136.981 108.031 136.162 118.333L136.435 118.193C142.61 114.814 150.722 111.359 159.458 109.433C168.129 107.432 177.541 106.832 185.991 110.096C194.532 113.271 201.5 120.908 204.074 132.396C216.281 187.782 200.291 208.373 194.402 223.903C192.166 229.551 190.203 235.263 188.643 241.103C189.384 240.962 190.138 240.758 190.879 240.695C195.078 240.376 198.315 241.702 200.226 242.492C206.193 244.94 210.249 249.989 212.485 255.765C213.018 257.295 213.421 258.876 213.694 260.61C213.902 261.273 214.045 262 214.045 262.739C213.369 283.917 213.421 305.108 214.24 326.285C214.656 335.453 215.267 343.485 216.008 349.86C216.749 356.171 217.763 361.016 218.452 362.674C220.675 368.118 223.925 375.22 229.827 380.065C235.651 384.923 244.036 388.11 259.415 384.923C272.74 382.067 280.943 378.203 286.416 372.632C291.915 366.983 295.152 359.219 297.245 347.336C300.43 329.473 306.722 277.67 307.476 267.98C307.151 260.597 308.217 254.962 310.661 250.64C313.092 246.254 316.888 243.538 320.216 242.072C321.828 241.345 323.388 240.886 324.675 240.478C323.323 238.629 321.906 236.768 320.476 234.97C315.744 229.322 311.805 223.023 308.893 216.317C307.541 213.512 306.046 210.719 304.421 208.067C302.133 204.026 299.221 198.9 296.166 193.124C290.069 181.7 283.439 167.765 279.981 154.211C276.536 140.658 276.068 126.659 284.869 116.828C292.656 108.056 306.397 104.423 326.898 106.475C326.287 104.678 325.962 103.148 324.935 100.827C320.268 90.066 314.171 79.968 306.852 70.8008C289.445 48.96 261.209 27.2978 217.685 26.571L215.644 26.622ZM100.555 27.489C98.384 27.489 96.148 27.5528 93.99 27.693C76.453 28.7003 59.93 33.66 48.074 45.951C36.231 58.3058 28.457 78.4253 30.134 111.83C30.485 118.205 33.254 135.864 38.051 156.914C42.874 177.977 49.699 202.751 57.902 224.655C66.079 246.496 75.985 265.557 85.462 274.584C90.194 279.034 94.315 280.895 98.046 280.768C101.777 280.564 106.314 278.435 111.865 271.932C121.953 259.985 132.392 248.421 143.221 237.137C127.634 223.788 119.99 203.618 123.045 183.549C124.8 171.003 125.073 159.235 124.8 149.94C124.605 140.913 123.981 134.946 123.981 131.159C123.981 131.019 123.981 130.955 123.981 130.815V130.751L123.916 130.637C123.916 111.04 127.452 91.6598 134.212 73.2615C139.087 60.5625 146.276 47.7615 157.092 37.3193C146.471 33.864 127.569 28.7003 107.133 27.693C104.962 27.5528 102.713 27.489 100.555 27.489ZM315.445 117.262C303.68 117.466 297.102 120.462 293.592 124.3C288.704 129.821 288.236 139.511 291.291 151.47C294.32 163.417 300.638 176.766 306.527 187.871C309.439 193.443 312.286 198.428 314.574 202.47C316.953 206.588 318.643 209.444 319.657 211.969C320.606 214.226 321.698 216.215 322.777 218.076C327.314 208.641 328.133 199.41 327.652 189.72C327.041 177.773 324.207 165.546 324.675 153.204C325.156 138.72 328.068 129.285 328.276 118.129C324.064 117.606 319.735 117.262 315.471 117.262H315.445ZM172.731 119.276C169.143 119.276 165.555 119.735 162.032 120.539C155.051 122.209 148.356 124.721 142.051 128.176C139.958 129.298 137.93 130.573 136.032 132.039L135.616 132.358C135.759 134.895 136.227 140.862 136.435 149.762C136.643 159.452 136.435 171.794 134.55 185.156C130.351 214.238 151.879 238.285 177.138 238.349C178.633 232.369 181.051 226.313 183.495 219.95C190.528 201.348 204.347 187.808 192.699 134.819C190.814 126.187 187.018 122.668 181.792 120.679C178.88 119.672 175.851 119.213 172.731 119.289V119.276ZM309.972 122.719H310.856C311.935 122.783 313.027 122.859 313.963 123.114C314.847 123.318 315.666 123.586 316.342 124.045C317.018 124.44 317.486 125.103 317.629 125.894V126.034C317.629 126.837 317.421 127.628 317.018 128.367C316.485 129.285 315.874 130.152 315.133 130.879C313.365 132.804 310.986 134.079 308.425 134.462C305.916 134.806 303.42 134.143 301.314 132.74C300.495 132.128 299.689 131.465 299.078 130.739C298.467 130.139 298.129 129.349 297.986 128.546C297.934 127.768 298.129 126.965 298.662 126.365C299.286 125.753 299.962 125.231 300.703 124.835C302.38 123.905 304.616 123.242 307.203 122.897C308.139 122.783 309.088 122.706 309.972 122.642V122.719ZM174.408 125.575C175.292 125.575 176.319 125.639 177.268 125.766C179.972 126.174 182.273 126.837 184.093 127.895C184.977 128.303 185.796 128.966 186.394 129.693C187.07 130.496 187.395 131.478 187.343 132.549C187.135 133.531 186.719 134.474 186.043 135.201C185.302 136.068 184.496 136.795 183.547 137.394C181.311 138.988 178.542 139.651 175.76 139.319C172.965 138.86 170.404 137.534 168.519 135.482C167.7 134.615 167.024 133.684 166.478 132.689C165.867 131.758 165.607 130.7 165.737 129.629C166.01 127.844 167.57 126.837 169.065 126.314C170.768 125.766 172.588 125.588 174.408 125.651V125.575ZM331.435 250.41H331.37C328.874 251.341 326.781 251.685 325.013 252.488C323.193 253.151 321.75 254.477 320.892 256.122C319.735 258.06 318.864 261.515 319.124 267.406C319.865 267.954 320.749 268.337 321.711 268.617C324.623 269.484 329.628 270.083 335.179 270.007C346.216 269.867 359.827 267.355 367.068 264.027C372.957 261.375 378.508 257.792 383.383 253.61C359.216 258.455 345.618 257.193 337.207 253.814C335.179 252.947 333.203 251.813 331.435 250.41ZM192.231 252.004H191.88C190.944 252.068 189.644 252.412 187.005 255.204C180.973 261.834 178.88 266.016 173.94 269.879C168.935 273.794 162.5 275.859 149.565 278.447C145.509 279.251 143.13 280.169 141.57 280.895C142.038 281.303 142.038 281.444 142.779 281.762C144.69 282.833 147.108 283.7 149.084 284.223C154.635 285.549 163.696 287.143 173.251 285.549C182.728 283.955 192.608 279.493 201.084 267.89C202.579 265.901 202.696 262.905 201.487 259.718C200.278 256.607 197.626 253.814 195.806 253.088C194.649 252.539 193.427 252.221 192.218 252.017L192.231 252.004Z" fill="#464A4E"/>
</svg>
