<svg width="423" height="512" viewBox="0 0 423 512" fill="none" xmlns="http://www.w3.org/2000/svg">
<g clip-path="url(#clip0_13_1045)">
<path d="M208.777 0.00349502C191.352 0.0844687 174.712 1.57072 160.07 4.16187C116.936 11.7829 109.105 27.7343 109.105 57.1514V96.0025H211.035V108.953H109.105H70.8518C41.2283 108.953 15.2891 126.76 7.17559 160.635C-2.18318 199.465 -2.59829 223.694 7.17559 264.238C14.4211 294.418 31.7244 315.921 61.3479 315.921H96.3936V269.347C96.3936 235.7 125.503 206.021 160.07 206.021H261.881C290.221 206.021 312.845 182.684 312.845 154.22V57.1514C312.845 29.5252 289.542 8.77256 261.881 4.16187C244.371 1.24682 226.203 -0.0774798 208.777 0.00349502ZM153.655 31.2507C164.183 31.2507 172.781 39.99 172.781 50.7356C172.781 61.4432 164.183 70.1018 153.655 70.1018C143.088 70.1018 134.528 61.4432 134.528 50.7356C134.528 39.99 143.088 31.2507 153.655 31.2507Z" fill="url(#paint0_linear_13_1045)"/>
<path d="M325.557 108.953V154.219C325.557 189.314 295.806 218.852 261.881 218.852H160.07C132.182 218.852 109.105 242.723 109.105 270.654V367.722C109.105 395.348 133.126 411.598 160.07 419.524C192.335 429.012 223.276 430.727 261.881 419.524C287.542 412.093 312.845 397.139 312.845 367.722V328.871H211.035V315.921H312.845H363.81C393.434 315.921 404.473 295.256 414.775 264.238C425.417 232.306 424.964 201.598 414.775 160.635C407.454 131.142 393.471 108.953 363.81 108.953H325.557ZM268.296 354.772C278.862 354.772 287.422 363.43 287.422 374.138C287.422 384.884 278.862 393.623 268.296 393.623C257.767 393.623 249.169 384.884 249.169 374.138C249.169 363.43 257.767 354.772 268.296 354.772Z" fill="url(#paint1_linear_13_1045)"/>
</g>
<defs>
<linearGradient id="paint0_linear_13_1045" x1="-1.26983e-06" y1="-1.10317e-06" x2="235.058" y2="200.282" gradientUnits="userSpaceOnUse">
<stop stop-color="#464A4E"/>
<stop offset="1" stop-color="#464A4E"/>
</linearGradient>
<linearGradient id="paint1_linear_13_1045" x1="265.846" y1="370.872" x2="181.512" y2="252.706" gradientUnits="userSpaceOnUse">
<stop stop-color="#464A4E"/>
<stop offset="1" stop-color="#464A4E"/>
</linearGradient>
<clipPath id="clip0_13_1045">
<rect width="422.587" height="512" fill="white"/>
</clipPath>
</defs>
</svg>
