<svg width="512" height="384" viewBox="0 0 512 384" fill="none" xmlns="http://www.w3.org/2000/svg">
<g clip-path="url(#clip0_13_1044)">
<path d="M361.764 290.187C360.14 289.031 360.41 285.297 365.749 273.667C367.845 269.1 372.628 261.412 380.941 254.065C381.904 257.087 382.492 259.984 382.475 262.681C382.368 280.677 369.528 287.397 361.764 290.187ZM293.422 305.766C291.246 306.904 289.251 307.62 288.323 307.068C287.643 306.661 289.221 305.162 289.221 305.162C289.221 305.162 300.318 293.225 304.689 287.789C307.231 284.628 310.179 280.876 313.391 276.68C313.417 277.099 313.431 277.515 313.431 277.926C313.398 292.228 299.583 301.884 293.422 305.766ZM204.71 263.437C199.576 275.952 188.832 307.97 182.293 306.254C176.679 304.781 173.261 280.442 181.172 256.489C185.154 244.431 193.66 230.024 198.657 224.432C206.702 215.433 215.559 212.49 217.711 216.138C220.455 220.787 207.928 255.592 204.71 263.437ZM97.3329 336.434C82.5939 352.513 62.0012 358.59 53.1718 353.471C43.6372 347.943 47.4135 324.271 65.5011 307.208C76.5255 296.809 90.7564 287.232 100.199 281.332C102.347 280.04 105.504 278.141 109.34 275.842C109.976 275.48 110.335 275.279 110.335 275.279L110.321 275.254C111.061 274.812 111.82 274.357 112.603 273.889C119.185 298.176 112.803 319.558 97.3329 336.434ZM440.32 220.802C422.438 220.896 406.95 225.189 393.966 231.588C389.218 222.112 384.412 213.774 383.605 207.575C382.663 200.338 381.571 196.021 382.709 187.4C383.847 178.779 388.835 166.571 388.762 165.657C388.689 164.742 387.643 160.35 377.329 160.276C367.015 160.202 358.192 162.26 357.154 164.983C356.116 167.707 354.13 173.836 352.894 180.227C351.088 189.579 332.301 222.934 321.635 240.383C318.146 233.573 315.18 227.568 314.561 222.82C313.62 215.583 312.527 211.266 313.665 202.644C314.803 194.023 319.791 181.814 319.718 180.899C319.645 179.985 318.6 175.594 308.286 175.519C297.971 175.445 289.148 177.503 288.11 180.227C287.072 182.95 285.963 189.314 283.85 195.47C281.738 201.627 256.765 257.267 250.225 271.688C246.892 279.036 243.992 284.939 241.945 288.972C241.939 288.961 241.932 288.949 241.932 288.949C241.932 288.949 241.806 289.217 241.588 289.67C239.835 293.102 238.792 295.001 238.792 295.001C238.792 295.001 238.804 295.027 238.823 295.072C237.433 297.592 235.944 299.933 235.206 299.933C234.69 299.933 233.658 293.224 235.431 284.017C239.146 264.716 248.073 234.616 247.984 233.579C247.938 233.047 249.643 227.803 242.154 225.06C234.876 222.396 232.284 226.84 231.62 226.854C230.976 226.868 230.498 228.424 230.498 228.424C230.498 228.424 238.608 194.574 215.031 194.574C200.291 194.574 179.866 210.699 169.805 225.314C163.455 228.778 149.868 236.195 135.452 244.116C129.915 247.157 124.265 250.266 118.907 253.218C118.543 252.814 118.18 252.41 117.805 252.01C89.2162 221.509 36.3676 199.936 38.6102 158.931C39.4256 144.024 44.6067 104.772 140.159 57.1592C218.431 18.1558 281.092 28.8888 291.921 52.6759C307.391 86.6589 258.432 149.819 177.146 158.931C146.175 162.403 129.868 150.4 125.812 145.929C121.542 141.223 120.905 141.011 119.311 141.894C116.714 143.333 118.36 147.488 119.311 149.964C121.738 156.281 131.697 167.482 148.677 173.053C163.614 177.955 199.976 180.648 243.948 163.638C293.2 144.588 331.658 91.5924 320.362 47.2958C308.874 2.24267 234.173 -12.5683 163.473 12.5497C121.395 27.498 75.8445 50.9591 43.0936 81.5936C4.15272 118.017 -2.05674 149.719 0.501581 162.966C9.59347 210.033 74.4669 240.683 100.445 263.399C99.1627 264.106 97.9606 264.77 96.8669 265.373C83.8418 271.816 34.3912 297.696 22.0217 325.039C7.99067 356.056 24.255 378.309 35.0235 381.306C68.3853 390.589 102.621 373.891 121.02 346.448C139.415 319.012 137.169 283.287 128.726 266.98C128.621 266.777 128.505 266.579 128.398 266.378C131.761 264.388 135.19 262.364 138.589 260.368C145.218 256.476 151.725 252.844 157.372 249.771C154.213 258.429 151.898 268.806 150.694 283.792C149.28 301.399 156.496 324.157 165.938 333.11C170.095 337.052 175.097 337.145 178.267 337.145C189.254 337.145 194.268 328.004 199.787 317.194C206.558 303.935 212.565 288.5 212.565 288.5C212.565 288.5 205.025 330.195 225.567 330.195C233.052 330.195 240.58 320.49 243.933 315.541C243.944 315.595 243.948 315.624 243.948 315.624C243.948 315.624 244.143 315.302 244.525 314.656C245.302 313.468 245.742 312.711 245.742 312.711C245.742 312.711 245.757 312.633 245.781 312.496C248.789 307.272 255.462 295.362 265.469 275.722C278.398 250.348 290.8 218.559 290.8 218.559C290.8 218.559 291.953 226.332 295.731 239.183C297.954 246.745 302.677 255.104 306.403 263.119C303.403 267.281 301.56 269.671 301.56 269.671C301.56 269.671 301.577 269.715 301.61 269.795C299.213 272.976 296.526 276.41 293.715 279.757C283.51 291.911 271.356 305.79 269.728 309.796C267.811 314.516 268.264 317.987 271.969 320.78C274.676 322.82 279.495 323.137 284.523 322.798C293.693 322.181 300.145 319.907 303.329 318.522C308.291 316.767 314.07 314.007 319.494 310.02C329.504 302.661 335.542 292.133 334.962 278.188C334.64 270.503 332.189 262.886 329.089 255.695C329.998 254.389 330.909 253.071 331.822 251.736C347.603 228.667 359.843 203.316 359.843 203.316C359.843 203.316 360.997 211.087 364.776 223.94C366.688 230.445 370.461 237.541 373.853 244.502C359.015 256.558 349.813 270.567 346.617 279.757C340.71 296.754 345.337 304.456 354.016 306.209C357.947 307.004 363.499 305.202 367.676 303.434C372.873 301.711 379.118 298.841 384.951 294.553C394.961 287.194 404.585 276.889 404.005 262.945C403.74 256.596 402.019 250.295 399.683 244.242C412.26 239.003 428.545 236.089 449.287 238.511C493.785 243.707 502.514 271.491 500.846 283.12C499.177 294.75 489.843 301.141 486.723 303.072C483.603 305.002 482.65 305.671 482.913 307.107C483.292 309.194 484.735 309.113 487.395 308.665C491.058 308.047 510.762 299.206 511.605 277.741C512.677 250.489 486.568 220.556 440.32 220.802Z" fill="#464A4E"/>
</g>
<defs>
<clipPath id="clip0_13_1044">
<rect width="512" height="384" fill="white"/>
</clipPath>
</defs>
</svg>
