<svg width="384" height="384" viewBox="0 0 384 384" fill="none" xmlns="http://www.w3.org/2000/svg">
<g clip-path="url(#clip0_13_1038)">
<path d="M383.986 106.356C383.964 102.493 383.92 98.6331 383.815 94.7664C383.591 86.356 383.095 77.8696 381.6 69.5461C380.083 61.0959 377.603 53.2394 373.696 45.5604C369.858 38.0225 364.844 31.1218 358.863 25.1408C352.882 19.1597 345.985 14.1454 338.443 10.3077C330.775 6.40476 322.915 3.92473 314.472 2.40774C306.145 0.908862 297.659 0.412855 289.241 0.188385C285.378 0.0833905 281.515 0.0399447 277.652 0.0146012C273.068 -0.0107422 268.477 -0.0107422 263.894 -0.0107422H162.234H120.124C115.537 -0.0107422 110.95 -0.0107422 106.366 0.0146012C102.503 0.0399447 98.6366 0.0833905 94.7772 0.188385C92.6737 0.246313 90.5666 0.318722 88.4558 0.420096C82.1272 0.724217 75.7877 1.28539 69.5496 2.40774C63.2174 3.54458 57.2146 5.22448 51.3711 7.63935C49.4233 8.4431 47.4936 9.33012 45.5784 10.3077C39.9232 13.1859 34.6264 16.7268 29.8111 20.8397C28.2 22.2154 26.6504 23.6492 25.1552 25.1444C19.1705 31.1255 14.1561 38.0261 10.322 45.564C6.41553 53.2394 3.93912 61.0995 2.41851 69.5497C0.923248 77.8696 0.42724 86.3597 0.20277 94.7701C0.097776 98.6367 0.0507096 102.496 0.0253662 106.359C-0.00359774 110.943 2.27493e-05 115.53 2.27493e-05 120.113V182.715V263.879C2.27493e-05 268.47 -0.00359774 273.054 0.0253662 277.645C0.0507096 281.508 0.0941555 285.367 0.20277 289.227C0.42724 297.641 0.926868 306.131 2.41851 314.447C3.93549 322.893 6.41191 330.757 10.322 338.433C14.1598 345.974 19.1741 352.871 25.1552 358.849C31.1326 364.833 38.0333 369.848 45.5784 373.689C53.2502 377.592 61.1066 380.068 69.5496 381.585C77.8695 383.084 86.3632 383.58 94.7772 383.805C98.6366 383.906 102.503 383.953 106.366 383.975C110.95 384.007 115.533 384.004 120.124 384.004H263.89C268.474 384.004 273.065 384.007 277.648 383.975C281.511 383.953 285.371 383.906 289.237 383.805C297.655 383.58 306.141 383.08 314.468 381.585C322.911 380.068 330.768 377.592 338.44 373.689C345.981 369.848 352.878 364.833 358.859 358.849C364.84 352.867 369.858 345.974 373.692 338.433C377.599 330.757 380.079 322.893 381.596 314.447C383.091 306.131 383.587 297.641 383.812 289.227C383.917 285.367 383.96 281.508 383.982 277.645C384.011 273.054 384.011 268.47 384.011 263.879V120.113C384.011 115.53 384.014 110.943 383.986 106.356Z" fill="#464A4E"/>
<path d="M304.259 237.004C304.682 235.56 305.12 234.123 305.493 232.642C321.431 169.142 282.532 94.0676 216.708 54.5391C245.556 93.644 258.307 141.007 246.975 182.429C245.965 186.122 244.749 189.67 243.406 193.117C241.946 192.161 240.111 191.071 237.645 189.714C237.645 189.714 172.165 149.284 101.196 77.7754C99.3354 75.8963 139.041 134.527 184.102 182.132C162.875 170.214 103.713 127.166 66.255 92.8837C70.8566 100.559 76.3308 107.949 82.3444 115.063C113.625 154.729 154.414 203.674 203.283 241.255C168.947 262.268 120.428 263.901 72.1238 241.277C60.1762 235.676 48.9418 228.92 38.5474 221.245C58.9959 253.952 90.4905 282.17 128.821 298.647C174.529 318.292 219.985 316.959 253.84 298.969L253.814 299.009C253.93 298.937 254.057 298.861 254.176 298.788C255.697 297.974 257.203 297.134 258.673 296.254C275.027 287.858 306.938 279.574 324.085 312.941C328.306 321.152 337.281 277.634 304.288 237.037C304.277 237.023 304.27 237.015 304.259 237.004Z" fill="white"/>
</g>
<defs>
<clipPath id="clip0_13_1038">
<rect width="384" height="384" fill="white"/>
</clipPath>
</defs>
</svg>
