<svg width="384" height="384" viewBox="0 0 384 384" fill="none" xmlns="http://www.w3.org/2000/svg">
<g clip-path="url(#clip0_13_1038)">
<path fill-rule="evenodd" clip-rule="evenodd" d="M383.815 94.7664C383.92 98.6331 383.964 102.493 383.986 106.356C384.012 110.483 384.011 114.61 384.011 118.735L384.011 120.113V263.879C384.011 268.47 384.011 273.054 383.982 277.645C383.96 281.508 383.917 285.367 383.812 289.227C383.587 297.641 383.091 306.131 381.596 314.447C380.079 322.893 377.599 330.757 373.692 338.433C369.858 345.974 364.84 352.867 358.859 358.849C352.878 364.833 345.981 369.848 338.44 373.689C330.768 377.592 322.911 380.068 314.468 381.585C306.141 383.08 297.655 383.58 289.237 383.805C285.371 383.906 281.511 383.953 277.648 383.975C273.482 384.004 269.31 384.004 265.143 384.004L263.89 384.004H120.124L118.869 384.004C114.698 384.004 110.532 384.004 106.366 383.975C102.503 383.953 98.6366 383.906 94.7772 383.805C86.3632 383.58 77.8695 383.084 69.5496 381.585C61.1066 380.068 53.2502 377.592 45.5784 373.689C38.0333 369.848 31.1326 364.833 25.1552 358.849C19.1741 352.871 14.1598 345.974 10.322 338.433C6.41191 330.757 3.93549 322.893 2.41851 314.447C0.926868 306.131 0.42724 297.641 0.20277 289.227C0.0941555 285.367 0.0507096 281.508 0.0253662 277.645C-0.000700982 273.513 -0.000375514 269.387 -4.96741e-05 265.257L2.27495e-05 263.879V182.715V120.113C2.27495e-05 119.655 -1.34509e-05 119.197 -4.96536e-05 118.738C-0.0003755 114.613 -0.000701532 110.484 0.0253662 106.359C0.0507096 102.496 0.097776 98.6367 0.20277 94.7701C0.42724 86.3597 0.923248 77.8696 2.41851 69.5497C3.93912 61.0995 6.41553 53.2394 10.322 45.564C14.1561 38.0261 19.1705 31.1255 25.1552 25.1444C26.6504 23.6492 28.2 22.2154 29.8111 20.8397C34.6264 16.7268 39.9232 13.1859 45.5784 10.3077C47.4936 9.33012 49.4233 8.4431 51.3711 7.63935C57.2146 5.22448 63.2174 3.54458 69.5496 2.40774C75.7877 1.28539 82.1272 0.724217 88.4558 0.420096C90.5666 0.318722 92.6737 0.246313 94.7772 0.188385C98.6366 0.0833905 102.503 0.0399447 106.366 0.0146012C110.95 -0.0107422 115.537 -0.0107422 120.124 -0.0107422H162.234H263.894C268.477 -0.0107422 273.068 -0.0107422 277.652 0.0146012C281.515 0.0399447 285.378 0.0833905 289.241 0.188385C297.659 0.412855 306.145 0.908862 314.472 2.40774C322.915 3.92473 330.775 6.40476 338.443 10.3077C345.985 14.1454 352.882 19.1597 358.863 25.1408C364.844 31.1218 369.858 38.0225 373.696 45.5604C377.603 53.2394 380.083 61.0959 381.6 69.5461C383.095 77.8696 383.591 86.356 383.815 94.7664ZM304.482 236.245C304.408 236.498 304.333 236.751 304.259 237.004C304.27 237.015 304.277 237.023 304.288 237.037C337.281 277.634 328.306 321.152 324.085 312.941C306.938 279.574 275.027 287.858 258.673 296.254C257.203 297.134 255.697 297.974 254.176 298.788C254.057 298.861 253.93 298.937 253.814 299.009L253.84 298.969C219.985 316.959 174.529 318.292 128.821 298.647C90.4905 282.17 58.9959 253.952 38.5474 221.245C48.9418 228.92 60.1762 235.676 72.1238 241.277C120.428 263.901 168.947 262.268 203.283 241.255C154.414 203.674 113.625 154.729 82.3444 115.063C76.3308 107.949 70.8566 100.559 66.255 92.8837C103.713 127.166 162.875 170.214 184.102 182.132C139.041 134.527 99.3354 75.8963 101.196 77.7754C172.165 149.284 237.645 189.714 237.645 189.714C240.111 191.071 241.946 192.161 243.406 193.117C244.749 189.67 245.965 186.122 246.975 182.429C258.307 141.007 245.556 93.644 216.708 54.5391C282.532 94.0676 321.431 169.142 305.493 232.642C305.186 233.863 304.834 235.054 304.482 236.245Z" fill="#464A4E"/>
</g>
<defs>
<clipPath id="clip0_13_1038">
<rect width="384" height="384" fill="white"/>
</clipPath>
</defs>
</svg>
