<svg width="512" height="512" viewBox="0 0 512 512" fill="none" xmlns="http://www.w3.org/2000/svg">
<path d="M255.991 103.68C188.294 103.68 145.983 137.528 129.058 205.226C154.445 171.377 184.063 158.684 217.911 167.146C237.227 171.97 251.021 185.975 266.315 201.503C291.215 226.763 320.009 256 382.925 256C450.622 256 492.934 222.15 509.858 154.453C484.471 188.302 454.854 200.995 421.005 192.533C401.69 187.71 387.898 173.704 372.602 158.176C347.723 132.917 318.929 103.68 255.991 103.68ZM129.058 256C61.3606 256 19.0494 289.85 2.125 357.547C27.5117 323.697 57.1294 311.004 90.9783 319.467C110.293 324.29 124.087 338.295 139.382 353.824C164.282 379.083 193.075 408.32 255.991 408.32C323.689 408.32 366.001 374.47 382.925 306.773C357.538 340.623 327.921 353.316 294.071 344.853C274.756 340.03 260.962 326.024 245.668 310.496C220.789 285.237 191.996 256 129.058 256Z" fill="#464A4E"/>
</svg>
