<svg width="512" height="512" viewBox="0 0 512 512" fill="none" xmlns="http://www.w3.org/2000/svg">
<path d="M70.8923 256C70.8923 329.354 113.559 392.533 175.261 422.564L86.9743 180.677C76.3729 204.373 70.8928 230.039 70.8923 256ZM256 441.107C277.498 441.107 298.174 437.333 317.538 430.605L316.226 428.143L259.281 272.245L203.815 433.559C220.226 438.481 237.786 441.107 256 441.107ZM281.436 169.19L348.39 368.245L366.933 306.543C374.81 280.943 380.881 262.564 380.881 246.645C380.881 223.671 372.676 207.918 365.786 195.774C356.267 180.349 347.569 167.384 347.569 152.287C347.569 135.22 360.369 119.466 378.748 119.466H381.045C346.938 88.1543 302.302 70.815 256 70.8922C225.342 70.8864 195.165 78.502 168.181 93.0537C141.197 107.606 118.254 128.637 101.415 154.256L113.231 154.584C132.595 154.584 162.462 152.123 162.462 152.123C172.636 151.631 173.784 166.236 163.774 167.384C163.774 167.384 153.764 168.697 142.441 169.19L210.051 369.724L250.586 248.288L221.702 169.19C215.234 168.833 208.776 168.285 202.339 167.549C192.328 166.892 193.477 151.631 203.487 152.123C203.487 152.123 234.01 154.584 252.226 154.584C271.59 154.584 301.457 152.123 301.457 152.123C311.467 151.631 312.779 166.236 302.769 167.384C302.769 167.384 292.759 168.533 281.436 169.19ZM349.045 416C377.05 399.718 400.29 376.371 416.444 348.294C432.599 320.217 441.103 288.392 441.107 256C441.107 223.836 432.902 193.641 418.462 167.22C421.395 196.288 416.994 225.625 405.662 252.554L349.045 416ZM256 469.333C199.421 469.333 145.158 446.856 105.15 406.85C65.1428 366.841 42.6666 312.58 42.6666 256C42.6666 199.42 65.1428 145.158 105.15 105.15C145.158 65.1427 199.421 42.6665 256 42.6665C312.58 42.6665 366.842 65.1427 406.85 105.15C446.856 145.158 469.333 199.42 469.333 256C469.333 312.58 446.856 366.841 406.85 406.85C366.842 446.856 312.58 469.333 256 469.333Z" fill="#464A4E"/>
</svg>
