<svg width="445" height="445" viewBox="0 0 445 445" fill="none" xmlns="http://www.w3.org/2000/svg">
<g clip-path="url(#clip0_673_78)">
<mask id="mask0_673_78" style="mask-type:luminance" maskUnits="userSpaceOnUse" x="0" y="0" width="445" height="445">
<path d="M445 0H0V445H445V0Z" fill="white"/>
</mask>
<g mask="url(#mask0_673_78)">
<path d="M251.743 96.6285L230.764 33.0571L75.65 0L0 85.8214L236.486 206.607L251.743 96.6285Z" fill="currentColor"/>
<path d="M178 263.185L173.55 130.956L0 85.8208L42.5929 340.742L178 339.471V263.185Z" fill="currentColor"/>
<path d="M140.488 260.642L148.752 155.748L274.625 26.6987L387.146 47.0416L444.996 191.348L384.602 251.106L286.067 235.213L225.038 299.419L140.488 260.642Z" fill="currentColor"/>
<path d="M274.628 26.6987L94.0844 186.898L129.049 392.87L279.078 444.998L444.999 345.827L274.628 26.6987Z" fill="currentColor"/>
<path d="M85.1894 85.1826H359.817V359.812H85.1894V85.1826Z" fill="currentColor"/>
<path d="M111.25 308.321H214.236V325.485H111.25V308.321Z" fill="none"/>
<path d="M109.987 120.783H156.394C183.729 120.783 200.258 136.676 200.258 160.197V160.833C200.258 187.533 179.916 200.883 153.852 200.883H134.78V235.211H109.987V120.783ZM155.123 177.997C167.837 177.997 174.829 170.369 174.829 160.833V160.197C174.829 148.755 167.202 143.033 154.487 143.033H135.416V177.997H155.123Z" fill="white"/>
<path d="M206.611 218.683L221.233 200.883C231.404 209.147 242.211 214.868 255.561 214.868C265.733 214.868 272.09 211.054 272.09 204.062V203.425C272.09 197.068 268.275 193.889 249.204 188.804C226.319 183.083 211.061 176.725 211.061 153.839V153.204C211.061 132.225 227.59 118.875 251.111 118.875C267.64 118.875 282.261 123.961 293.704 133.497L280.354 152.568C270.183 145.575 260.011 141.125 250.475 141.125C240.94 141.125 235.854 145.575 235.854 151.297V151.933C235.854 159.562 240.94 162.104 260.646 167.189C283.533 173.547 296.883 181.812 296.883 201.518V202.154C296.883 225.039 279.719 237.754 254.925 237.754C237.761 237.118 220.596 230.762 206.611 218.683Z" fill="white"/>
</g>
</g>
<defs>
<clipPath id="clip0_673_78">
<rect width="445" height="445" fill="white"/>
</clipPath>
</defs>
</svg>
