<svg version="1.0" xmlns="http://www.w3.org/2000/svg"
 width="418.000000pt" height="418.000000pt" viewBox="0 0 418.000000 418.000000"
 preserveAspectRatio="xMidYMid meet">

<g transform="translate(0.000000,418.000000) scale(0.100000,-0.100000)"
fill="currentColor" stroke="none">
<path d="M1020 3861 c-667 -279 -756 -319 -762 -341 -8 -25 -260 -2681 -256
-2685 2 -2 325 -190 718 -419 567 -331 717 -414 725 -404 63 84 279 326 288
323 58 -19 1157 -325 1168 -325 13 0 1269 426 1275 433 2 1 -79 312 -178 690
l-181 687 166 341 c163 334 166 341 147 357 -11 10 -184 154 -384 322 l-365
305 -1 118 0 117 -74 0 c-63 0 -75 3 -80 18 -2 9 -28 182 -57 385 -29 202 -56
372 -60 378 -4 7 -113 -83 -283 -235 -171 -152 -282 -244 -289 -239 -7 4 -175
114 -375 245 -200 132 -368 241 -375 243 -7 1 -352 -139 -767 -314z m1639
-812 c36 -6 98 -26 136 -44 69 -32 155 -97 155 -117 0 -10 -127 -161 -141
-166 -4 -2 -28 13 -53 32 -72 55 -147 78 -236 74 -93 -4 -156 -34 -211 -98
-61 -70 -82 -137 -77 -245 5 -107 31 -168 100 -232 113 -103 313 -96 442 17
l37 33 77 -77 77 -77 -55 -52 c-63 -59 -159 -110 -238 -126 -29 -6 -98 -11
-153 -11 -111 0 -212 26 -290 76 -243 153 -323 468 -187 738 37 73 141 179
215 219 110 59 260 80 402 56z m-1055 -25 c174 -44 275 -172 276 -351 0 -136
-51 -239 -152 -308 -79 -53 -160 -74 -314 -82 l-133 -6 -3 -151 -3 -151 -117
-3 -118 -3 0 536 0 535 251 0 c195 0 265 -3 313 -16z m411 -1819 l0 -80 -487
-3 -488 -2 0 78 c0 43 3 82 7 85 3 4 223 6 487 5 l481 -3 0 -80z"/>
<path d="M1280 2670 l0 -162 129 4 c141 3 159 10 205 72 30 39 29 133 0 173
-41 55 -76 67 -211 71 l-123 4 0 -162z"/>
</g>
</svg>
