<svg width="418" height="418" viewBox="0 0 418 418" fill="none" xmlns="http://www.w3.org/2000/svg">
<g clip-path="url(#clip0_673_96)">
<mask id="mask0_673_96" style="mask-type:luminance" maskUnits="userSpaceOnUse" x="0" y="0" width="418" height="418">
<path d="M418 0H0V418H418V0Z" fill="white"/>
</mask>
<g mask="url(#mask0_673_96)">
<path d="M293.196 65.689L415.014 167.801L371.422 256.775L297.376 236.472H234.079L293.196 65.689Z" fill="currentColor"/>
<path d="M170.186 131.969L146.3 256.771L143.911 299.766L84.7943 325.443L0 334.4L25.6771 63.8943L178.546 0L272.894 62.1029L170.186 131.969Z" fill="currentColor"/>
<path d="M170.186 131.97L181.531 373.216L143.314 418.002L0 334.402L117.637 158.842L170.186 131.97Z" fill="currentColor"/>
<path d="M327.828 114.054H182.722L311.108 0L327.828 114.054Z" fill="currentColor"/>
<path d="M418.001 373.811L290.212 417.403L120.624 369.631L170.187 131.969L189.892 114.054L293.198 104.5L283.644 208.403L366.049 176.754L418.001 373.811Z" fill="currentColor"/>
<path d="M80.0206 80.0142H337.986V337.98H80.0206V80.0142Z" fill="currentColor"/>
<path d="M104.5 289.614H201.237V305.737H104.5V289.614Z" fill="none"/>
<path d="M103.913 114.055H146.907C172.584 114.055 188.11 128.983 188.11 151.077C188.11 175.56 169.001 189.294 145.117 189.294H127.202V220.943H103.913V114.055ZM145.713 167.797C157.657 167.797 164.224 160.034 164.224 151.077C164.224 140.329 157.058 134.954 145.117 134.954H127.202V167.797H145.713Z" fill="white"/>
<path d="M197.659 167.797C197.659 137.342 220.351 112.262 253.194 112.262C273.497 112.262 285.439 118.831 295.591 128.982L280.662 146.3C272.302 138.537 263.942 134.357 253.194 134.357C235.279 134.357 222.142 149.285 222.142 167.797C222.142 186.308 234.682 200.64 253.194 200.64C265.137 200.64 272.899 195.862 281.259 188.1L296.188 203.028C285.439 214.971 272.899 222.137 252.597 222.137C220.948 222.734 197.659 198.251 197.659 167.797Z" fill="white"/>
</g>
</g>
<defs>
<clipPath id="clip0_673_96">
<rect width="418" height="418" fill="white"/>
</clipPath>
</defs>
</svg>
