<svg width="512" height="512" viewBox="0 0 512 512" fill="none" xmlns="http://www.w3.org/2000/svg">
<path d="M308.224 346.441C296.126 363.546 283.59 379.123 270.965 392.845C306.641 427.467 339.821 443.68 358.229 433.052C376.638 422.423 379.187 385.583 367.042 337.376C348.845 341.449 329.088 344.516 308.224 346.441ZM280.277 348.299C272.301 348.629 264.203 348.798 256.006 348.798C247.81 348.798 239.712 348.629 231.738 348.299C239.774 358.801 247.91 368.531 256.006 377.397C264.102 368.531 272.239 358.801 280.277 348.299ZM387.812 179.899C444.659 196.207 481.786 223.3 481.786 255.998C481.786 288.693 444.659 315.789 387.812 332.096C402.114 389.481 397.212 435.179 368.896 451.526C340.58 467.874 298.554 449.269 256.006 408.192C213.461 449.269 171.434 467.874 143.118 451.526C114.802 435.179 109.9 389.481 124.202 332.096C67.3545 315.789 30.2291 288.693 30.2291 255.998C30.2291 223.3 67.3545 196.207 124.202 179.899C109.9 122.515 114.802 76.816 143.118 60.4679C171.434 44.1197 213.461 62.7241 256.006 103.801C298.554 62.7241 340.58 44.1197 368.896 60.4679C397.212 76.816 402.114 122.515 387.812 179.899ZM367.042 174.619C379.187 126.412 376.638 89.5712 358.229 78.9432C339.821 68.3149 306.641 84.5272 270.965 119.149C283.59 132.87 296.126 148.448 308.224 165.553C329.088 167.478 348.845 170.546 367.042 174.619ZM144.972 337.376C132.826 385.583 135.376 422.423 153.785 433.052C172.193 443.68 205.373 427.467 241.05 392.845C228.422 379.123 215.887 363.546 203.789 346.441C182.926 344.516 163.168 341.449 144.972 337.376ZM231.738 163.696C239.712 163.366 247.81 163.197 256.006 163.197C264.203 163.197 272.301 163.366 280.277 163.696C272.239 153.194 264.102 143.462 256.006 134.597C247.91 143.462 239.774 153.194 231.738 163.696ZM203.789 165.553C215.887 148.448 228.422 132.87 241.05 119.149C205.373 84.5272 172.193 68.3149 153.785 78.9432C135.376 89.5712 132.826 126.412 144.972 174.619C163.168 170.546 182.926 167.478 203.789 165.553ZM296.403 325.967C303.776 315.153 310.98 303.714 317.899 291.731C324.817 279.746 331.121 267.789 336.8 255.998C331.121 244.205 324.817 232.247 317.899 220.265C310.98 208.28 303.776 196.841 296.403 186.028C283.351 185.05 269.845 184.531 256.006 184.531C242.17 184.531 228.661 185.05 215.61 186.028C208.237 196.841 201.034 208.28 194.115 220.265C187.196 232.247 180.892 244.205 175.213 255.998C180.892 267.789 187.196 279.746 194.115 291.731C201.034 303.714 208.237 315.153 215.61 325.967C228.661 326.944 242.17 327.465 256.006 327.465C269.845 327.465 283.351 326.944 296.403 325.967ZM323.808 323.166C336.922 321.457 349.417 319.277 361.143 316.698C357.513 305.252 353.154 293.342 348.077 281.131C344.375 288.203 340.471 295.298 336.373 302.398C332.275 309.495 328.081 316.425 323.808 323.166ZM188.207 188.828C175.093 190.538 162.597 192.718 150.871 195.297C154.501 206.741 158.861 218.654 163.937 230.865C167.639 223.793 171.542 216.696 175.64 209.597C179.738 202.499 183.933 195.57 188.207 188.828ZM150.871 316.698C162.597 319.277 175.093 321.457 188.207 323.166C183.933 316.425 179.738 309.495 175.64 302.398C171.542 295.298 167.639 288.203 163.937 281.131C158.861 293.342 154.501 305.252 150.871 316.698ZM130.014 311.467C135.584 293.673 142.807 275.027 151.571 255.998C142.807 236.966 135.584 218.323 130.014 200.527C82.1929 214.112 51.5625 234.741 51.5625 255.998C51.5625 277.252 82.1929 297.882 130.014 311.467ZM361.143 195.297C349.417 192.718 336.922 190.538 323.808 188.828C328.081 195.57 332.275 202.499 336.373 209.597C340.471 216.696 344.375 223.793 348.077 230.865C353.154 218.654 357.513 206.741 361.143 195.297ZM382.001 200.527C376.429 218.323 369.207 236.966 360.442 255.998C369.207 275.027 376.429 293.673 382.001 311.467C429.822 297.882 460.452 277.252 460.452 255.998C460.452 234.741 429.822 214.112 382.001 200.527ZM256.006 296.085C233.867 296.085 215.919 278.138 215.919 255.998C215.919 233.856 233.867 215.908 256.006 215.908C278.148 215.908 296.096 233.856 296.096 255.998C296.096 278.138 278.148 296.085 256.006 296.085Z" fill="currentColor"/>
</svg>
