<svg width="512" height="512" viewBox="0 0 512 512" fill="none" xmlns="http://www.w3.org/2000/svg">
<g clip-path="url(#clip0_673_124)">
<path d="M384 336V144H352V368H480V336H384Z" fill="currentColor"/>
<path d="M288 144H224C215.513 144 207.374 147.371 201.373 153.373C195.371 159.374 192 167.513 192 176V336C192 344.487 195.371 352.626 201.373 358.627C207.374 364.629 215.513 368 224 368H240V400C240 408.487 243.371 416.626 249.373 422.627C255.374 428.629 263.513 432 272 432H304V400H272V368H288C296.487 368 304.626 364.629 310.627 358.627C316.629 352.626 320 344.487 320 336V176C320 167.513 316.629 159.374 310.627 153.373C304.626 147.371 296.487 144 288 144ZM224 336V176H288V336H224Z" fill="currentColor"/>
<path d="M128 368H32V336H128V272H64C55.5131 272 47.3737 268.629 41.3726 262.627C35.3714 256.626 32 248.487 32 240V176C32 167.513 35.3714 159.374 41.3726 153.373C47.3737 147.371 55.5131 144 64 144H160V176H64V240H128C136.487 240 144.626 243.371 150.627 249.373C156.629 255.374 160 263.513 160 272V336C160 344.487 156.629 352.626 150.627 358.627C144.626 364.629 136.487 368 128 368Z" fill="currentColor"/>
</g>
<defs>
<clipPath id="clip0_673_124">
<rect width="512" height="512" fill="white"/>
</clipPath>
</defs>
</svg>
