<svg width="365" height="365" viewBox="0 0 365 365" fill="none" xmlns="http://www.w3.org/2000/svg">
<g clip-path="url(#clip0_673_121)">
<path d="M330.781 0H34.2188C15.3984 0 0 15.3984 0 34.2188V330.781C0 349.602 15.3984 365 34.2188 365H330.781C349.602 365 365 349.602 365 330.781V34.2188C365 15.3984 349.602 0 330.781 0ZM159.688 273.75C159.688 286.297 149.422 296.562 136.875 296.562H91.25C78.7031 296.562 68.4375 286.297 68.4375 273.75V91.25C68.4375 78.7031 78.7031 68.4375 91.25 68.4375H136.875C149.422 68.4375 159.688 78.7031 159.688 91.25V273.75ZM296.562 205.312C296.562 217.859 286.297 228.125 273.75 228.125H228.125C215.578 228.125 205.312 217.859 205.312 205.312V91.25C205.312 78.7031 215.578 68.4375 228.125 68.4375H273.75C286.297 68.4375 296.562 78.7031 296.562 91.25V205.312Z" fill="currentColor"/>
</g>
<defs>
<clipPath id="clip0_673_121">
<rect width="365" height="365" fill="white"/>
</clipPath>
</defs>
</svg>
