<svg width="512" height="512" viewBox="0 0 512 512" fill="none" xmlns="http://www.w3.org/2000/svg">
<path d="M115.698 64.8145C88.3091 64.8145 68.0433 88.7859 68.9506 114.783C69.821 139.76 68.6901 172.107 60.5463 198.486C52.3782 224.943 38.5641 241.702 16 243.855V268.147C38.5641 270.3 52.3782 287.059 60.5463 313.515C68.6901 339.895 69.821 372.243 68.9506 397.218C68.0433 423.213 88.3091 447.187 115.702 447.187H396.339C423.727 447.187 443.989 423.215 443.083 397.218C442.212 372.243 443.343 339.895 451.486 313.515C459.659 287.059 473.436 270.3 496 268.147V243.855C473.436 241.702 459.659 224.943 451.486 198.486C443.343 172.111 442.212 139.76 443.083 114.783C443.989 88.7899 423.727 64.8145 396.339 64.8145H115.698ZM341.423 300.19C341.423 335.985 314.722 357.696 270.413 357.696H194.983C192.825 357.696 190.756 356.838 189.23 355.313C187.705 353.788 186.847 351.718 186.847 349.559V162.442C186.847 160.284 187.705 158.215 189.23 156.689C190.756 155.163 192.825 154.306 194.983 154.306H269.982C306.929 154.306 331.177 174.32 331.177 205.048C331.177 226.615 314.865 245.924 294.082 249.306V250.432C322.374 253.536 341.423 273.126 341.423 300.19ZM262.187 180.096H219.179V240.845H255.403C283.405 240.845 298.846 229.568 298.846 209.412C298.846 190.526 285.568 180.096 262.187 180.096ZM219.179 264.949V331.898H263.77C292.924 331.898 308.369 320.198 308.369 298.212C308.369 276.222 292.493 264.945 261.894 264.945L219.179 264.949Z" fill="currentColor"/>
</svg>
