<svg width="512" height="512" viewBox="0 0 512 512" fill="none" xmlns="http://www.w3.org/2000/svg">
<path d="M462.153 213.052L461.555 211.524L403.55 60.177C402.372 57.2087 400.286 54.6886 397.591 52.9762C394.876 51.2623 391.695 50.4332 388.489 50.6039C385.282 50.7746 382.206 51.9364 379.689 53.9289C377.193 55.9294 375.394 58.6666 374.547 61.7499L335.332 181.768H176.674L137.458 61.7499C136.611 58.6666 134.813 55.9294 132.318 53.9289C129.811 51.923 126.738 50.7526 123.531 50.5817C120.324 50.4109 117.145 51.2482 114.438 52.9762C111.731 54.6816 109.636 57.2032 108.456 60.177L50.3857 211.723L49.7875 213.229C41.4515 235.055 40.4267 258.999 46.8674 281.457C53.3082 303.917 66.8663 323.678 85.5027 337.768L85.7242 337.922L86.2338 338.321L174.702 404.546L218.438 437.668L245.026 457.807C248.147 460.168 251.955 461.444 255.87 461.444C259.785 461.444 263.593 460.168 266.716 457.807L293.303 437.668L337.06 404.546L426.039 337.922L426.281 337.745C444.981 323.667 458.594 303.891 465.065 281.395C471.537 258.903 470.513 234.914 462.153 213.052Z" fill="currentColor"/>
</svg>
