<svg width="512" height="256" viewBox="0 0 512 256" fill="none" xmlns="http://www.w3.org/2000/svg">
<path d="M38.8045 56.9497H111.529C132.874 57.1289 148.342 63.2831 157.932 75.4022C167.521 87.5212 170.685 104.074 167.429 125.061C166.164 134.651 163.359 144.056 159.017 153.283C154.854 162.509 149.069 170.829 141.65 178.248C132.603 187.653 122.926 193.623 112.614 196.157C102.303 198.692 91.6275 199.956 80.5939 199.956H48.0307L37.719 251.515H0L38.8045 56.9497ZM70.5536 87.8848L54.272 169.293C55.3574 169.472 56.4429 169.564 57.5283 169.564C58.793 169.564 60.0627 169.564 61.3274 169.564C78.6944 169.743 93.1686 168.028 104.745 164.408C116.321 160.609 124.104 147.405 128.082 124.79C131.338 105.795 128.082 94.8479 118.313 91.9551C108.723 89.0623 96.6963 87.7056 82.2221 87.8848C80.0512 88.064 77.9725 88.1561 75.9808 88.1561C74.1734 88.1561 72.2739 88.1561 70.2822 88.1561L70.5536 87.8848Z" fill="currentColor"/>
<path d="M210.396 5.12012H247.844L237.261 56.9499H270.909C289.362 57.3134 303.109 61.1124 312.156 68.347C321.382 75.5816 324.096 89.3339 320.297 109.594L302.116 199.957H264.125L281.492 113.664C283.3 104.617 282.757 98.1966 279.864 94.3976C276.972 90.5985 270.73 88.699 261.14 88.699L231.02 88.4276L208.768 199.957H171.32L210.396 5.12012Z" fill="currentColor"/>
<path d="M360.509 56.9497H433.234C454.579 57.1289 470.047 63.2831 479.636 75.4022C489.226 87.5212 492.39 104.074 489.134 125.061C487.869 134.651 485.064 144.056 480.722 153.283C476.559 162.509 470.774 170.829 463.355 178.248C454.308 187.653 444.631 193.623 434.319 196.157C424.008 198.692 413.332 199.956 402.299 199.956H369.736L359.424 251.515H321.705L360.509 56.9497ZM392.259 87.8848L375.977 169.293C377.062 169.472 378.148 169.564 379.233 169.564C380.498 169.564 381.768 169.564 383.032 169.564C400.399 169.743 414.874 168.028 426.45 164.408C438.026 160.609 445.809 147.405 449.787 124.79C453.043 105.795 449.787 94.8479 440.018 91.9551C430.428 89.0623 418.401 87.7056 403.927 87.8848C401.756 88.064 399.677 88.1561 397.686 88.1561C395.878 88.1561 393.979 88.1561 391.987 88.1561L392.259 87.8848Z" fill="currentColor"/>
</svg>
