<svg version="1.0" xmlns="http://www.w3.org/2000/svg"
 width="445.000000pt" height="445.000000pt" viewBox="0 0 445.000000 445.000000"
 preserveAspectRatio="xMidYMid meet">

<g transform="translate(0.000000,445.000000) scale(0.100000,-0.100000)"
fill="currentColor" stroke="none">
<path d="M380 4024 c-206 -235 -376 -431 -377 -438 -1 -6 94 -580 211 -1276
l212 -1265 212 3 212 3 0 -101 0 -100 193 0 193 0 26 -161 c15 -88 29 -163 31
-166 3 -2 341 -121 751 -264 l747 -259 822 491 c452 270 825 494 829 498 3 3
-115 233 -263 511 l-270 505 271 265 271 265 -286 715 c-158 393 -290 719
-294 723 -7 7 -1086 207 -1118 207 -6 0 -89 -69 -185 -154 -95 -85 -174 -153
-177 -151 -2 3 -21 57 -42 121 -20 64 -39 118 -42 120 -3 3 -1545 335 -1551
334 -1 0 -170 -192 -376 -426z m2309 -784 c80 -20 179 -66 224 -102 l28 -23
-61 -87 c-34 -48 -66 -90 -71 -94 -6 -3 -41 10 -79 30 -98 52 -146 67 -217 67
-86 1 -129 -21 -145 -73 -24 -79 20 -114 222 -173 211 -62 302 -117 350 -211
22 -42 25 -62 25 -145 0 -90 -2 -100 -35 -165 -42 -83 -102 -132 -199 -164
-133 -44 -265 -37 -425 21 -83 30 -236 121 -236 140 0 14 132 178 144 179 4 0
25 -13 45 -29 108 -85 280 -126 384 -92 69 23 97 93 57 144 -30 38 -53 48
-230 102 -179 54 -237 82 -290 143 -49 55 -70 117 -70 203 0 158 91 280 248
330 79 25 233 25 331 -1z m-982 -13 c212 -61 314 -216 292 -444 -8 -80 -58
-182 -113 -229 -97 -83 -203 -113 -398 -114 l-138 0 -2 -172 -3 -173 -122 -3
-123 -3 0 582 0 581 278 -5 c204 -4 291 -9 329 -20z m438 -1947 l0 -85 -517
-3 -518 -2 0 90 0 90 518 -2 517 -3 0 -85z"/>
<path d="M1362 2849 l3 -174 125 0 c110 1 130 4 168 23 59 31 82 72 82 148 0
47 -5 69 -23 95 -37 57 -83 72 -229 77 l-128 5 2 -174z"/>
</g>
</svg>
