<svg width="512" height="512" viewBox="0 0 512 512" fill="none" xmlns="http://www.w3.org/2000/svg">
<path fill-rule="evenodd" clip-rule="evenodd" d="M220.8 64H292.8V99.2H312C321.6 99.2 328 105.6 328 115.2V188.8L318.4 201.6L417.6 374.4L432 436.8C433.6 444.8 424 451.2 417.6 444.8L371.2 401.6L339.2 345.6C313.6 360 286.4 368 256 368C225.6 368 198.4 360 174.4 345.6L142.4 401.6L96 444.8C89.6 451.2 78.4 444.8 81.6 436.8L96 374.4L132.8 308.8C108.8 281.6 96 244.8 96 206.4C96 200 96 193.6 97.6 188.8H145.6C144 195.2 144 200 144 206.4C144 227.2 150.4 246.4 160 264L196.8 201.6L187.2 188.8V115.2C187.2 105.6 193.6 99.2 203.2 99.2H222.4V64H220.8ZM230.4 246.4L198.4 304C216 313.6 235.2 320 256 320C276.8 320 297.6 313.6 313.6 304L280 246.4L267.2 262.4C260.8 270.4 248 270.4 241.6 262.4L230.4 246.4ZM225.6 188.8C232 200 243.2 206.4 256 206.4C268.8 206.4 281.6 200 286.4 188.8C289.6 184 291.2 177.6 291.2 171.2C291.2 152 275.2 136 256 136C236.8 136 220.8 152 220.8 171.2C220.8 177.6 222.4 184 225.6 188.8Z" fill="currentColor"/>
</svg>
