<svg width="512" height="512" viewBox="0 0 512 512" fill="none" xmlns="http://www.w3.org/2000/svg">
<path d="M256.021 42.6667C138.154 42.6667 42.6876 138.133 42.6876 256C42.6876 350.4 103.754 430.133 188.554 458.4C199.221 460.267 203.221 453.867 203.221 448.267C203.221 443.2 202.954 426.4 202.954 408.533C149.354 418.4 135.488 395.467 131.221 383.467C128.821 377.333 118.421 358.4 109.354 353.333C101.888 349.333 91.221 339.467 109.088 339.2C125.888 338.933 137.888 354.667 141.888 361.067C161.088 393.333 191.754 384.267 204.021 378.667C205.888 364.8 211.488 355.467 217.621 350.133C170.154 344.8 120.554 326.4 120.554 244.8C120.554 221.6 128.821 202.4 142.421 187.467C140.288 182.133 132.821 160.267 144.554 130.933C144.554 130.933 162.421 125.333 203.221 152.8C220.288 148 238.421 145.6 256.555 145.6C274.688 145.6 292.821 148 309.888 152.8C350.688 125.067 368.555 130.933 368.555 130.933C380.288 160.267 372.821 182.133 370.688 187.467C384.288 202.4 392.555 221.333 392.555 244.8C392.555 326.667 342.688 344.8 295.221 350.133C302.955 356.8 309.621 369.6 309.621 389.6C309.621 418.133 309.355 441.067 309.355 448.267C309.355 453.867 313.355 460.533 324.021 458.4C410.859 429.084 469.331 347.654 469.355 256C469.355 138.133 373.888 42.6667 256.021 42.6667Z" fill="currentColor"/>
</svg>
