<svg width="512" height="512" viewBox="0 0 512 512" fill="none" xmlns="http://www.w3.org/2000/svg">
<g clip-path="url(#clip0_673_117)">
<path d="M493.84 55.168L388.512 4.49602C376.256 -1.42398 361.68 1.07202 352.096 10.656L150.352 194.736L62.432 128.064C54.272 121.808 42.768 122.32 35.184 129.232L7.02401 154.896C-2.30399 163.312 -2.30399 177.984 6.94401 186.4L83.2 255.984L6.94401 325.568C-2.30399 333.984 -2.30399 348.656 7.02401 357.072L35.184 382.736C42.848 389.648 54.272 390.16 62.432 383.904L150.352 317.152L352.192 501.312C361.696 510.896 376.272 513.392 388.528 507.472L493.952 456.72C505.04 451.392 512.032 440.224 512.032 427.888V83.968C512.032 71.712 504.944 60.464 493.872 55.136L493.84 55.168ZM384.08 372.256L230.912 256L384.08 139.744V372.256Z" fill="currentColor"/>
</g>
<defs>
<clipPath id="clip0_673_117">
<rect width="512" height="512" fill="white"/>
</clipPath>
</defs>
</svg>
