<svg width="512" height="512" viewBox="0 0 512 512" fill="none" xmlns="http://www.w3.org/2000/svg">
<path d="M108.144 371.712C108.144 370.416 123.632 343.328 123.632 343.328C126.944 342.16 130.768 341.488 134.736 341.488C145.248 341.488 154.672 346.192 161.008 353.6L161.04 353.648C153.568 367.2 146.304 378.592 138.416 389.488L139.104 388.48C135.632 391.984 130.816 394.16 125.488 394.16C123.904 394.16 122.384 393.968 120.912 393.616L121.04 393.648C113.136 392.176 107.248 385.328 107.248 377.12C107.248 375.184 107.568 373.328 108.176 371.6L108.144 371.712ZM52.656 156.24V373.008C53.008 412.064 84.576 443.616 123.584 443.968H135.232C135.232 442.672 150.72 415.584 184.256 358.816C188.128 351.072 193.28 343.328 198.448 334.304H104.256C103.936 334.32 103.552 334.336 103.168 334.336C94.4 334.336 87.04 328.352 84.928 320.24L84.896 320.112C84.48 318.656 84.24 316.992 84.24 315.264C84.24 305.104 92.464 296.88 102.624 296.88C102.736 296.88 102.848 296.88 102.976 296.88H150.704L211.344 191.072C211.344 191.072 197.152 165.264 193.28 158.816C191.504 155.984 190.448 152.544 190.448 148.848C190.448 143.68 192.512 139.008 195.872 135.584C203.616 127.84 216.512 123.968 229.424 144.608L234.592 152.352L239.76 144.608C251.376 127.84 259.12 129.12 265.568 130.416C275.888 132.992 282.336 144.608 273.312 162.672L193.312 296.864H220.416C229.44 281.376 238.48 265.904 247.52 249.12C246.432 244.992 245.808 240.256 245.808 235.376C245.808 232.944 245.968 230.544 246.272 228.192L246.24 228.464C247.952 217.936 252.56 208.688 259.184 201.312L259.136 201.36L266.88 214.256C282.624 188.56 298.592 158.064 312.576 126.512L314.608 121.36C317.152 114.672 318.64 106.928 318.64 98.8479C318.64 94.0319 318.112 89.3279 317.12 84.7999L317.2 85.2319H123.664C123.6 85.2319 123.536 85.2319 123.456 85.2319C84.368 85.2319 52.688 116.912 52.688 156C52.688 156.08 52.688 156.144 52.688 156.224V156.208L52.656 156.24ZM424.256 154.944V372.992C424.256 373.04 424.256 373.104 424.256 373.152C424.256 419.376 386.784 456.848 340.56 456.848C340.496 456.848 340.448 456.848 340.384 456.848H253.936C253.936 456.848 246.192 477.488 270.704 477.488H348.112C348.176 477.488 348.256 477.488 348.32 477.488C400.928 477.488 443.584 434.832 443.584 382.224C443.584 382.144 443.584 382.08 443.584 382V192.352C444.88 174.288 429.392 162.672 424.24 154.928L424.256 154.944ZM128.784 456.864H122.336C122.288 456.864 122.224 456.864 122.176 456.864C75.952 456.864 38.48 419.392 38.48 373.168C38.48 373.104 38.48 373.056 38.48 372.992V156.24C38.48 156.192 38.48 156.128 38.48 156.08C38.48 109.856 75.952 72.3839 122.176 72.3839C122.24 72.3839 122.288 72.3839 122.352 72.3839H309.424C300.976 66.6079 290.528 63.1519 279.28 63.1519C277.632 63.1519 276 63.2319 274.384 63.3759L274.592 63.3599C271.888 63.8719 268.784 64.1759 265.616 64.1759C259.104 64.1759 252.88 62.9279 247.168 60.6559L247.504 60.7679C239.76 54.3199 241.056 50.4479 229.44 50.4479H114.608C114.544 50.4479 114.464 50.4479 114.384 50.4479C61.776 50.4479 19.12 93.1039 19.12 145.712C19.12 145.792 19.12 145.856 19.12 145.936V145.92V380.752C19.104 381.392 19.088 382.144 19.088 382.912C19.088 432.704 58.608 473.264 107.984 474.944H108.144C121.04 474.944 124.912 464.608 128.784 456.864ZM324.912 296.88H355.872C376.512 296.88 380.384 307.2 380.384 311.072C381.68 321.392 376.512 334.304 355.872 334.304H336.512L352 360.112C361.024 375.6 357.168 383.344 352 388.496C348.352 391.52 343.616 393.344 338.448 393.344C329.344 393.344 321.568 387.632 318.496 379.6L318.448 379.456L300.384 348.496C287.488 376.88 274.576 407.84 259.088 443.968H339.088C378.144 443.616 409.696 412.048 410.048 373.04V147.216C408.752 144.64 406.176 145.92 404.88 147.216C374.688 190.368 347.824 239.648 326.688 291.856L324.912 296.88ZM397.168 122.688C402.08 120.032 407.904 118.464 414.112 118.464C415.872 118.464 417.6 118.592 419.296 118.832L419.104 118.816C427.056 121.552 433.664 126.496 438.384 132.896L438.464 133.008C444.416 141.088 452.864 147.024 462.672 149.712L462.992 149.792C468.16 151.088 477.184 136.896 483.632 123.984C489.024 115.136 492.336 104.496 492.656 93.1039V93.0079C486.32 87.3439 478.448 83.2479 469.744 81.4559L469.424 81.4079C465.792 82.3679 461.632 82.9279 457.328 82.9279C455.68 82.9279 454.048 82.8479 452.448 82.6879L452.656 82.7039C442.656 79.2159 434.56 72.3679 429.536 63.5519L429.424 63.3439C420.512 51.9679 409.296 42.8159 396.432 36.4959L395.872 36.2559C383.92 30.4159 370.048 25.9199 355.488 23.4719L354.592 23.3439C340.16 18.8959 323.568 16.3359 306.384 16.3359C301.552 16.3359 296.768 16.5439 292.032 16.9279L292.656 16.8799C279.456 17.7439 267.136 20.0479 255.376 23.6319L256.528 23.3279C255.232 23.3279 252.656 27.1999 255.232 27.1999C257.808 27.1999 266.848 28.4959 266.848 28.4959C266.848 28.4959 255.232 31.0719 255.232 33.6639C255.232 36.2559 256.528 36.2399 257.808 36.2399C259.088 36.2399 287.488 34.9439 299.104 36.2399C314.544 38.7999 327.456 47.8879 335.104 60.5279L335.232 60.7519C341.44 71.6639 345.088 84.7359 345.088 98.6559C345.088 108.208 343.36 117.36 340.224 125.808L340.4 125.264C321.04 167.84 167.504 429.76 159.76 447.824C152.016 465.888 149.44 477.504 171.376 489.12C193.312 500.736 204.928 495.568 211.376 487.824C219.12 477.504 352.016 144.608 397.168 122.688Z" fill="currentColor"/>
</svg>
